<svg aria-roledescription="flowchart-v2" role="graphics-document document" viewBox="0 -49 2274.3359375 989.5" style="max-width: 2274.34px; background-color: transparent;" class="flowchart" xmlns:xlink="http://www.w3.org/1999/xlink" xmlns="http://www.w3.org/2000/svg" width="100%" id="my-svg"><style>#my-svg{font-family:Pretendard,'Apple SD Gothic Neo','Noto Sans KR',-apple-system,BlinkMacSystemFont,'Segoe UI',sans-serif;font-size:15px;fill:#0B3B33;}@keyframes edge-animation-frame{from{stroke-dashoffset:0;}}@keyframes dash{to{stroke-dashoffset:0;}}#my-svg .edge-animation-slow{stroke-dasharray:9,5!important;stroke-dashoffset:900;animation:dash 50s linear infinite;stroke-linecap:round;}#my-svg .edge-animation-fast{stroke-dasharray:9,5!important;stroke-dashoffset:900;animation:dash 20s linear infinite;stroke-linecap:round;}#my-svg .error-icon{fill:#FFF1ED;}#my-svg .error-text{fill:#000e12;stroke:#000e12;}#my-svg .edge-thickness-normal{stroke-width:1px;}#my-svg .edge-thickness-thick{stroke-width:3.5px;}#my-svg .edge-pattern-solid{stroke-dasharray:0;}#my-svg .edge-thickness-invisible{stroke-width:0;fill:none;}#my-svg .edge-pattern-dashed{stroke-dasharray:3;}#my-svg .edge-pattern-dotted{stroke-dasharray:2;}#my-svg .marker{fill:#7A8B96;stroke:#7A8B96;}#my-svg .marker.cross{stroke:#7A8B96;}#my-svg svg{font-family:Pretendard,'Apple SD Gothic Neo','Noto Sans KR',-apple-system,BlinkMacSystemFont,'Segoe UI',sans-serif;font-size:15px;}#my-svg p{margin:0;}#my-svg .label{font-family:Pretendard,'Apple SD Gothic Neo','Noto Sans KR',-apple-system,BlinkMacSystemFont,'Segoe UI',sans-serif;color:#0B3B33;}#my-svg .cluster-label text{fill:#0B3B33;}#my-svg .cluster-label span{color:#0B3B33;}#my-svg .cluster-label span p{background-color:transparent;}#my-svg .label text,#my-svg span{fill:#0B3B33;color:#0B3B33;}#my-svg .node rect,#my-svg .node circle,#my-svg .node ellipse,#my-svg .node polygon,#my-svg .node path{fill:#E9FBF5;stroke:#3FD3B0;stroke-width:1px;}#my-svg .rough-node .label text,#my-svg .node .label text,#my-svg .image-shape .label,#my-svg .icon-shape .label{text-anchor:middle;}#my-svg .node .katex path{fill:#000;stroke:#000;stroke-width:1px;}#my-svg .rough-node .label,#my-svg .node .label,#my-svg .image-shape .label,#my-svg .icon-shape .label{text-align:center;}#my-svg .node.clickable{cursor:pointer;}#my-svg .root .anchor path{fill:#7A8B96!important;stroke-width:0;stroke:#7A8B96;}#my-svg .arrowheadPath{fill:#0b0b0b;}#my-svg .edgePath .path{stroke:#7A8B96;stroke-width:2.0px;}#my-svg .flowchart-link{stroke:#7A8B96;fill:none;}#my-svg .edgeLabel{background-color:#FFFFFF;text-align:center;}#my-svg .edgeLabel p{background-color:#FFFFFF;}#my-svg .edgeLabel rect{opacity:0.5;background-color:#FFFFFF;fill:#FFFFFF;}#my-svg .labelBkg{background-color:rgba(255, 255, 255, 0.5);}#my-svg .cluster rect{fill:#F6FAFB;stroke:#CBD8DF;stroke-width:1px;}#my-svg .cluster text{fill:#0B3B33;}#my-svg .cluster span{color:#0B3B33;}#my-svg div.mermaidTooltip{position:absolute;text-align:center;max-width:200px;padding:2px;font-family:Pretendard,'Apple SD Gothic Neo','Noto Sans KR',-apple-system,BlinkMacSystemFont,'Segoe UI',sans-serif;font-size:12px;background:#FFF1ED;border:1px solid hsl(13.3333333333, 60%, 86.4705882353%);border-radius:2px;pointer-events:none;z-index:100;}#my-svg .flowchartTitleText{text-anchor:middle;font-size:18px;fill:#0B3B33;}#my-svg rect.text{fill:none;stroke-width:0;}#my-svg .icon-shape,#my-svg .image-shape{background-color:#FFFFFF;text-align:center;}#my-svg .icon-shape p,#my-svg .image-shape p{background-color:#FFFFFF;padding:2px;}#my-svg .icon-shape rect,#my-svg .image-shape rect{opacity:0.5;background-color:#FFFFFF;fill:#FFFFFF;}#my-svg .label-icon{display:inline-block;height:1em;overflow:visible;vertical-align:-0.125em;}#my-svg .node .label-icon path{fill:currentColor;stroke:revert;stroke-width:revert;}#my-svg :root{--mermaid-font-family:"trebuchet ms",verdana,arial,sans-serif;}#my-svg .orch rect{fill:#FFF1ED!important;stroke:#FF7A5C!important;stroke-width:2px!important;color:#7A2E1E!important;}#my-svg .orch polygon{fill:#FFF1ED!important;stroke:#FF7A5C!important;stroke-width:2px!important;color:#7A2E1E!important;}#my-svg .orch ellipse{fill:#FFF1ED!important;stroke:#FF7A5C!important;stroke-width:2px!important;color:#7A2E1E!important;}#my-svg .orch circle{fill:#FFF1ED!important;stroke:#FF7A5C!important;stroke-width:2px!important;color:#7A2E1E!important;}#my-svg .orch path{fill:#FFF1ED!important;stroke:#FF7A5C!important;stroke-width:2px!important;color:#7A2E1E!important;}#my-svg .orch tspan{fill:#7A2E1E!important;}#my-svg .common rect{fill:#FFF9E6!important;stroke:#E0B23A!important;stroke-width:1.5px!important;color:#5C4710!important;}#my-svg .common polygon{fill:#FFF9E6!important;stroke:#E0B23A!important;stroke-width:1.5px!important;color:#5C4710!important;}#my-svg .common ellipse{fill:#FFF9E6!important;stroke:#E0B23A!important;stroke-width:1.5px!important;color:#5C4710!important;}#my-svg .common circle{fill:#FFF9E6!important;stroke:#E0B23A!important;stroke-width:1.5px!important;color:#5C4710!important;}#my-svg .common path{fill:#FFF9E6!important;stroke:#E0B23A!important;stroke-width:1.5px!important;color:#5C4710!important;}#my-svg .common tspan{fill:#5C4710!important;}#my-svg .ingest rect{fill:#EAF6FF!important;stroke:#3FA0D3!important;stroke-width:1.5px!important;color:#0B3550!important;}#my-svg .ingest polygon{fill:#EAF6FF!important;stroke:#3FA0D3!important;stroke-width:1.5px!important;color:#0B3550!important;}#my-svg .ingest ellipse{fill:#EAF6FF!important;stroke:#3FA0D3!important;stroke-width:1.5px!important;color:#0B3550!important;}#my-svg .ingest circle{fill:#EAF6FF!important;stroke:#3FA0D3!important;stroke-width:1.5px!important;color:#0B3550!important;}#my-svg .ingest path{fill:#EAF6FF!important;stroke:#3FA0D3!important;stroke-width:1.5px!important;color:#0B3550!important;}#my-svg .ingest tspan{fill:#0B3550!important;}#my-svg .norm rect{fill:#E9FBF5!important;stroke:#3FD3B0!important;stroke-width:1.5px!important;color:#0B3B33!important;}#my-svg .norm polygon{fill:#E9FBF5!important;stroke:#3FD3B0!important;stroke-width:1.5px!important;color:#0B3B33!important;}#my-svg .norm ellipse{fill:#E9FBF5!important;stroke:#3FD3B0!important;stroke-width:1.5px!important;color:#0B3B33!important;}#my-svg .norm circle{fill:#E9FBF5!important;stroke:#3FD3B0!important;stroke-width:1.5px!important;color:#0B3B33!important;}#my-svg .norm path{fill:#E9FBF5!important;stroke:#3FD3B0!important;stroke-width:1.5px!important;color:#0B3B33!important;}#my-svg .norm tspan{fill:#0B3B33!important;}#my-svg .build rect{fill:#F3ECFF!important;stroke:#9B6BE0!important;stroke-width:1.5px!important;color:#3A2660!important;}#my-svg .build polygon{fill:#F3ECFF!important;stroke:#9B6BE0!important;stroke-width:1.5px!important;color:#3A2660!important;}#my-svg .build ellipse{fill:#F3ECFF!important;stroke:#9B6BE0!important;stroke-width:1.5px!important;color:#3A2660!important;}#my-svg .build circle{fill:#F3ECFF!important;stroke:#9B6BE0!important;stroke-width:1.5px!important;color:#3A2660!important;}#my-svg .build path{fill:#F3ECFF!important;stroke:#9B6BE0!important;stroke-width:1.5px!important;color:#3A2660!important;}#my-svg .build tspan{fill:#3A2660!important;}#my-svg .rec rect{fill:#FCE9F3!important;stroke:#D85B9E!important;stroke-width:1.5px!important;color:#5C1840!important;}#my-svg .rec polygon{fill:#FCE9F3!important;stroke:#D85B9E!important;stroke-width:1.5px!important;color:#5C1840!important;}#my-svg .rec ellipse{fill:#FCE9F3!important;stroke:#D85B9E!important;stroke-width:1.5px!important;color:#5C1840!important;}#my-svg .rec circle{fill:#FCE9F3!important;stroke:#D85B9E!important;stroke-width:1.5px!important;color:#5C1840!important;}#my-svg .rec path{fill:#FCE9F3!important;stroke:#D85B9E!important;stroke-width:1.5px!important;color:#5C1840!important;}#my-svg .rec tspan{fill:#5C1840!important;}#my-svg .sink rect{fill:#E6F6EC!important;stroke:#2ea44f!important;stroke-width:1.5px!important;color:#14532d!important;}#my-svg .sink polygon{fill:#E6F6EC!important;stroke:#2ea44f!important;stroke-width:1.5px!important;color:#14532d!important;}#my-svg .sink ellipse{fill:#E6F6EC!important;stroke:#2ea44f!important;stroke-width:1.5px!important;color:#14532d!important;}#my-svg .sink circle{fill:#E6F6EC!important;stroke:#2ea44f!important;stroke-width:1.5px!important;color:#14532d!important;}#my-svg .sink path{fill:#E6F6EC!important;stroke:#2ea44f!important;stroke-width:1.5px!important;color:#14532d!important;}#my-svg .sink tspan{fill:#14532d!important;}</style><g><marker orient="auto" markerHeight="8" markerWidth="8" markerUnits="userSpaceOnUse" refY="5" refX="5" viewBox="0 0 10 10" class="marker flowchart-v2" id="my-svg_flowchart-v2-pointEnd"><path style="stroke-width: 1; stroke-dasharray: 1, 0;" class="arrowMarkerPath" d="M 0 0 L 10 5 L 0 10 z"/></marker><marker orient="auto" markerHeight="8" markerWidth="8" markerUnits="userSpaceOnUse" refY="5" refX="4.5" viewBox="0 0 10 10" class="marker flowchart-v2" id="my-svg_flowchart-v2-pointStart"><path style="stroke-width: 1; stroke-dasharray: 1, 0;" class="arrowMarkerPath" d="M 0 5 L 10 10 L 10 0 z"/></marker><marker orient="auto" markerHeight="11" markerWidth="11" markerUnits="userSpaceOnUse" refY="5" refX="11" viewBox="0 0 10 10" class="marker flowchart-v2" id="my-svg_flowchart-v2-circleEnd"><circle style="stroke-width: 1; stroke-dasharray: 1, 0;" class="arrowMarkerPath" r="5" cy="5" cx="5"/></marker><marker orient="auto" markerHeight="11" markerWidth="11" markerUnits="userSpaceOnUse" refY="5" refX="-1" viewBox="0 0 10 10" class="marker flowchart-v2" id="my-svg_flowchart-v2-circleStart"><circle style="stroke-width: 1; stroke-dasharray: 1, 0;" class="arrowMarkerPath" r="5" cy="5" cx="5"/></marker><marker orient="auto" markerHeight="11" markerWidth="11" markerUnits="userSpaceOnUse" refY="5.2" refX="12" viewBox="0 0 11 11" class="marker cross flowchart-v2" id="my-svg_flowchart-v2-crossEnd"><path style="stroke-width: 2; stroke-dasharray: 1, 0;" class="arrowMarkerPath" d="M 1,1 l 9,9 M 10,1 l -9,9"/></marker><marker orient="auto" markerHeight="11" markerWidth="11" markerUnits="userSpaceOnUse" refY="5.2" refX="-1" viewBox="0 0 11 11" class="marker cross flowchart-v2" id="my-svg_flowchart-v2-crossStart"><path style="stroke-width: 2; stroke-dasharray: 1, 0;" class="arrowMarkerPath" d="M 1,1 l 9,9 M 10,1 l -9,9"/></marker><g class="root"><g class="clusters"><g data-look="classic" id="REC2" class="cluster"><rect height="303" width="225.890625" y="143.5" x="8" style=""/><g transform="translate(60.171875, 143.5)" class="cluster-label"><g><rect style="stroke: none" class="background"/><text style="" y="-10.1"><tspan dy="1.1em" y="-0.1em" x="0" class="text-outer-tspan"><tspan font-weight="normal" class="text-inner-tspan" font-style="normal">scripts/recommend</tspan></tspan></text></g></g></g><g data-look="classic" id="BUILD" class="cluster"><rect height="135.5" width="828.6875" y="661.5" x="543.1796875" style=""/><g transform="translate(918.8203125, 661.5)" class="cluster-label"><g><rect style="stroke: none" class="background"/><text style="" y="-10.1"><tspan dy="1.1em" y="-0.1em" x="0" class="text-outer-tspan"><tspan font-weight="normal" class="text-inner-tspan" font-style="normal">scripts/build</tspan></tspan></text></g></g></g><g data-look="classic" id="NORM" class="cluster"><rect height="286.5" width="836.5234375" y="510.5" x="1391.8671875" style=""/><g transform="translate(1756.26171875, 510.5)" class="cluster-label"><g><rect style="stroke: none" class="background"/><text style="" y="-10.1"><tspan dy="1.1em" y="-0.1em" x="0" class="text-outer-tspan"><tspan font-weight="normal" class="text-inner-tspan" font-style="normal">scripts/normalize</tspan></tspan></text></g></g></g><g data-look="classic" id="ING" class="cluster"><rect height="303" width="638.0625" y="143.5" x="1628.2734375" style=""/><g transform="translate(1905.1484375, 143.5)" class="cluster-label"><g><rect style="stroke: none" class="background"/><text style="" y="-10.1"><tspan dy="1.1em" y="-0.1em" x="0" class="text-outer-tspan"><tspan font-weight="normal" class="text-inner-tspan" font-style="normal">scripts/ingest</tspan></tspan></text></g></g></g><g data-look="classic" id="COMMON" class="cluster"><rect height="135.5" width="812.6953125" y="143.5" x="795.578125" style=""/><g transform="translate(1151.32421875, 143.5)" class="cluster-label"><g><rect style="stroke: none" class="background"/><text style="" y="-10.1"><tspan dy="1.1em" y="-0.1em" x="0" class="text-outer-tspan"><tspan font-weight="normal" class="text-inner-tspan" font-style="normal">scripts/common</tspan></tspan></text></g></g></g></g><g class="edgePaths"><path marker-end="url(#my-svg_flowchart-v2-pointEnd)" style="" class="edge-thickness-normal edge-pattern-solid edge-thickness-normal edge-pattern-solid flowchart-link" id="L_BASE_KO_0" d="M2040.73,232.65L2062.35,240.375C2083.969,248.1,2127.207,263.55,2148.826,276.608C2170.445,289.667,2170.445,300.333,2170.445,311.708C2170.445,323.083,2170.445,335.167,2170.445,341.208L2170.445,347.25"/><path marker-end="url(#my-svg_flowchart-v2-pointEnd)" style="" class="edge-thickness-normal edge-pattern-solid edge-thickness-normal edge-pattern-solid flowchart-link" id="L_BASE_TO_0" d="M1985.655,238.75L1986.83,245.458C1988.005,252.167,1990.354,265.583,1991.528,277.625C1992.703,289.667,1992.703,300.333,1992.703,311.708C1992.703,323.083,1992.703,335.167,1992.703,341.208L1992.703,347.25"/><path marker-end="url(#my-svg_flowchart-v2-pointEnd)" style="" class="edge-thickness-normal edge-pattern-solid edge-thickness-normal edge-pattern-solid flowchart-link" id="L_BASE_WSA_0" d="M1940.368,238.75L1930.496,245.458C1920.623,252.167,1900.878,265.583,1891.005,277.625C1881.133,289.667,1881.133,300.333,1874.46,310.603C1867.788,320.874,1854.443,330.747,1847.77,335.684L1841.097,340.621"/><path marker-end="url(#my-svg_flowchart-v2-pointEnd)" style="" class="edge-thickness-normal edge-pattern-solid edge-thickness-normal edge-pattern-solid flowchart-link" id="L_KO_T2O_0" d="M2170.445,406.25L2170.445,412.958C2170.445,419.667,2170.445,433.083,2170.445,445.125C2170.445,457.167,2170.445,467.833,2170.445,478.5C2170.445,489.167,2170.445,499.833,2129.853,512.907C2089.262,525.98,2008.078,541.46,1967.486,549.2L1926.894,556.94"/><path marker-end="url(#my-svg_flowchart-v2-pointEnd)" style="" class="edge-thickness-normal edge-pattern-solid edge-thickness-normal edge-pattern-solid flowchart-link" id="L_TO_T2O_0" d="M1992.703,406.25L1992.703,412.958C1992.703,419.667,1992.703,433.083,1992.703,445.125C1992.703,457.167,1992.703,467.833,1992.703,478.5C1992.703,489.167,1992.703,499.833,1981.274,510.23C1969.846,520.627,1946.989,530.753,1935.56,535.816L1924.131,540.88"/><path marker-end="url(#my-svg_flowchart-v2-pointEnd)" style="" class="edge-thickness-normal edge-pattern-solid edge-thickness-normal edge-pattern-solid flowchart-link" id="L_WSA_T2O_0" d="M1789.563,414.5L1789.563,419.833C1789.563,425.167,1789.563,435.833,1789.563,446.5C1789.563,457.167,1789.563,467.833,1789.563,478.5C1789.563,489.167,1789.563,499.833,1795.229,510.064C1800.895,520.295,1812.227,530.09,1817.893,534.987L1823.559,539.884"/><path marker-end="url(#my-svg_flowchart-v2-pointEnd)" style="" class="edge-thickness-normal edge-pattern-solid edge-thickness-normal edge-pattern-solid flowchart-link" id="L_T2O_UPS_0" d="M1858.402,597.5L1858.402,602.833C1858.402,608.167,1858.402,618.833,1858.402,629.5C1858.402,640.167,1858.402,650.833,1844.394,662.597C1830.387,674.36,1802.371,687.221,1788.363,693.651L1774.355,700.081"/><path marker-end="url(#my-svg_flowchart-v2-pointEnd)" style="" class="edge-thickness-normal edge-pattern-dotted edge-thickness-normal edge-pattern-solid flowchart-link" id="L_CFG_T2O_0" d="M1469.985,247L1480.147,252.333C1490.309,257.667,1510.633,268.333,1520.795,279C1530.957,289.667,1530.957,300.333,1530.957,316.958C1530.957,333.583,1530.957,356.167,1530.957,378.75C1530.957,401.333,1530.957,423.917,1546.866,440.542C1562.775,457.167,1594.592,467.833,1610.501,478.5C1626.41,489.167,1626.41,499.833,1653.669,512.158C1680.929,524.483,1735.447,538.465,1762.706,545.456L1789.965,552.448"/><path marker-end="url(#my-svg_flowchart-v2-pointEnd)" style="" class="edge-thickness-normal edge-pattern-dotted edge-thickness-normal edge-pattern-solid flowchart-link" id="L_CFG_BI_0" d="M1324.961,222.533L1260.812,231.944C1196.663,241.355,1068.365,260.178,1004.215,274.922C940.066,289.667,940.066,300.333,940.066,316.958C940.066,333.583,940.066,356.167,940.066,378.75C940.066,401.333,940.066,423.917,940.066,440.542C940.066,457.167,940.066,467.833,940.066,478.5C940.066,489.167,940.066,499.833,940.066,515.083C940.066,530.333,940.066,550.167,940.066,570C940.066,589.833,940.066,609.667,940.066,624.917C940.066,640.167,940.066,650.833,931.252,662.487C922.438,674.14,904.81,686.779,895.996,693.099L887.182,699.419"/><path marker-end="url(#my-svg_flowchart-v2-pointEnd)" style="" class="edge-thickness-normal edge-pattern-dotted edge-thickness-normal edge-pattern-solid flowchart-link" id="L_CFG_WI_0" d="M1351.359,247L1343.824,252.333C1336.289,257.667,1321.219,268.333,1313.683,279C1306.148,289.667,1306.148,300.333,1306.148,316.958C1306.148,333.583,1306.148,356.167,1306.148,378.75C1306.148,401.333,1306.148,423.917,1306.148,440.542C1306.148,457.167,1306.148,467.833,1306.148,478.5C1306.148,489.167,1306.148,499.833,1306.148,515.083C1306.148,530.333,1306.148,550.167,1306.148,570C1306.148,589.833,1306.148,609.667,1306.148,624.917C1306.148,640.167,1306.148,650.833,1301.994,662.322C1297.84,673.811,1289.533,686.123,1285.379,692.279L1281.225,698.434"/><path marker-end="url(#my-svg_flowchart-v2-pointEnd)" style="" class="edge-thickness-normal edge-pattern-dotted edge-thickness-normal edge-pattern-solid flowchart-link" id="L_CFG_WSA_0" d="M1478.773,246.198L1490.804,251.665C1502.835,257.132,1526.896,268.066,1570.253,278.866C1613.611,289.667,1676.264,300.333,1711.179,310.466C1746.093,320.599,1753.268,330.197,1756.856,334.997L1760.444,339.796"/><path marker-end="url(#my-svg_flowchart-v2-pointEnd)" style="" class="edge-thickness-normal edge-pattern-dotted edge-thickness-normal edge-pattern-solid flowchart-link" id="L_OKF_UPS_0" d="M1190.766,232.782L1235.917,240.485C1281.069,248.188,1371.372,263.594,1416.524,276.63C1461.676,289.667,1461.676,300.333,1461.676,316.958C1461.676,333.583,1461.676,356.167,1461.676,378.75C1461.676,401.333,1461.676,423.917,1461.676,440.542C1461.676,457.167,1461.676,467.833,1461.676,478.5C1461.676,489.167,1461.676,499.833,1461.676,515.083C1461.676,530.333,1461.676,550.167,1461.676,570C1461.676,589.833,1461.676,609.667,1461.676,624.917C1461.676,640.167,1461.676,650.833,1491.619,664.309C1521.562,677.785,1581.449,694.071,1611.392,702.214L1641.335,710.356"/><path marker-end="url(#my-svg_flowchart-v2-pointEnd)" style="" class="edge-thickness-normal edge-pattern-dotted edge-thickness-normal edge-pattern-solid flowchart-link" id="L_OKF_BI_0" d="M943.729,247L925.704,252.333C907.679,257.667,871.629,268.333,853.603,279C835.578,289.667,835.578,300.333,835.578,316.958C835.578,333.583,835.578,356.167,835.578,378.75C835.578,401.333,835.578,423.917,835.578,440.542C835.578,457.167,835.578,467.833,835.578,478.5C835.578,489.167,835.578,499.833,835.578,515.083C835.578,530.333,835.578,550.167,835.578,570C835.578,589.833,835.578,609.667,835.578,624.917C835.578,640.167,835.578,650.833,836.471,662.215C837.364,673.598,839.149,685.695,840.042,691.744L840.935,697.793"/><path marker-end="url(#my-svg_flowchart-v2-pointEnd)" style="" class="edge-thickness-normal edge-pattern-dotted edge-thickness-normal edge-pattern-solid flowchart-link" id="L_OKF_WI_0" d="M1118.872,247L1126.976,252.333C1135.079,257.667,1151.286,268.333,1159.389,279C1167.492,289.667,1167.492,300.333,1167.492,316.958C1167.492,333.583,1167.492,356.167,1167.492,378.75C1167.492,401.333,1167.492,423.917,1167.492,440.542C1167.492,457.167,1167.492,467.833,1167.492,478.5C1167.492,489.167,1167.492,499.833,1167.492,515.083C1167.492,530.333,1167.492,550.167,1167.492,570C1167.492,589.833,1167.492,609.667,1167.492,624.917C1167.492,640.167,1167.492,650.833,1176.156,662.482C1184.819,674.131,1202.147,686.762,1210.81,693.078L1219.474,699.394"/><path marker-end="url(#my-svg_flowchart-v2-pointEnd)" style="" class="edge-thickness-normal edge-pattern-dotted edge-thickness-normal edge-pattern-solid flowchart-link" id="L_OKF_SQ_0" d="M1059.278,247L1058.491,252.333C1057.704,257.667,1056.129,268.333,1055.342,279C1054.555,289.667,1054.555,300.333,1054.555,316.958C1054.555,333.583,1054.555,356.167,1054.555,378.75C1054.555,401.333,1054.555,423.917,1054.555,440.542C1054.555,457.167,1054.555,467.833,1054.555,478.5C1054.555,489.167,1054.555,499.833,1054.555,515.083C1054.555,530.333,1054.555,550.167,1054.555,570C1054.555,589.833,1054.555,609.667,1054.555,624.917C1054.555,640.167,1054.555,650.833,1054.555,660.833C1054.555,670.833,1054.555,680.167,1054.555,684.833L1054.555,689.5"/><path marker-end="url(#my-svg_flowchart-v2-pointEnd)" style="" class="edge-thickness-normal edge-pattern-solid edge-thickness-normal edge-pattern-solid flowchart-link" id="L_REC_AIP_0" d="M120.945,247L120.945,252.333C120.945,257.667,120.945,268.333,120.945,279C120.945,289.667,120.945,300.333,120.945,310.333C120.945,320.333,120.945,329.667,120.945,334.333L120.945,339"/><path marker-end="url(#my-svg_flowchart-v2-pointEnd)" style="" class="edge-thickness-normal edge-pattern-solid edge-thickness-normal edge-pattern-solid flowchart-link" id="L_RP_REC_0" d="M412.633,61.866L364.018,70.138C315.404,78.41,218.174,94.955,169.56,108.561C120.945,122.167,120.945,132.833,120.945,142.833C120.945,152.833,120.945,162.167,120.945,166.833L120.945,171.5"/><path marker-end="url(#my-svg_flowchart-v2-pointEnd)" style="" class="edge-thickness-normal edge-pattern-solid edge-thickness-normal edge-pattern-solid flowchart-link" id="L_RP_NOT_0" d="M447.635,79.5L436.974,84.833C426.314,90.167,404.993,100.833,394.332,111.5C383.672,122.167,383.672,132.833,383.672,144.208C383.672,155.583,383.672,167.667,383.672,173.708L383.672,179.75"/><path marker-end="url(#my-svg_flowchart-v2-pointEnd)" style="" class="edge-thickness-normal edge-pattern-solid edge-thickness-normal edge-pattern-solid flowchart-link" id="L_RP_MAC_0" d="M590.553,79.5L601.213,84.833C611.874,90.167,633.195,100.833,643.855,111.5C654.516,122.167,654.516,132.833,654.516,144.208C654.516,155.583,654.516,167.667,654.516,173.708L654.516,179.75"/><path marker-end="url(#my-svg_flowchart-v2-pointEnd)" style="" class="edge-thickness-normal edge-pattern-solid edge-thickness-normal edge-pattern-solid flowchart-link" id="L_RP_ING_0" d="M625.555,48.684L851.436,59.154C1077.316,69.623,1529.078,90.561,1754.959,105.697C1980.84,120.833,1980.84,130.167,1980.84,134.833L1980.84,139.5"/><path marker-end="url(#my-svg_flowchart-v2-pointEnd)" style="" class="edge-thickness-normal edge-pattern-solid edge-thickness-normal edge-pattern-solid flowchart-link" id="L_ING_NORM_0" d="M1668.273,446.5L1657.963,451.833C1647.652,457.167,1627.031,467.833,1616.721,477.833C1606.41,487.833,1606.41,497.167,1606.41,501.833L1606.41,506.5"/><path marker-end="url(#my-svg_flowchart-v2-pointEnd)" style="" class="edge-thickness-normal edge-pattern-solid edge-thickness-normal edge-pattern-solid flowchart-link" id="L_NORM_BUILD_0" d="M1391.867,677.497L1373.662,713.76"/><path marker-end="url(#my-svg_flowchart-v2-pointEnd)" style="" class="edge-thickness-normal edge-pattern-solid edge-thickness-normal edge-pattern-solid flowchart-link" id="L_BUILD_WEB_0" d="M647.109,797L647.109,802.333C647.109,807.667,647.109,818.333,647.109,828.333C647.109,838.333,647.109,847.667,647.109,852.333L647.109,857"/></g><g class="edgeLabels"><g><rect style="stroke: none" class="background"/></g><g><rect style="stroke: none" class="background"/></g><g><rect style="stroke: none" class="background"/></g><g><rect style="stroke: none" class="background"/></g><g><rect style="stroke: none" class="background"/></g><g><rect style="stroke: none" class="background"/></g><g><rect style="stroke: none" class="background"/></g><g><rect style="stroke: none" class="background"/></g><g><rect style="stroke: none" class="background"/></g><g><rect style="stroke: none" class="background"/></g><g><rect style="stroke: none" class="background"/></g><g><rect style="stroke: none" class="background"/></g><g><rect style="stroke: none" class="background"/></g><g><rect style="stroke: none" class="background"/></g><g><rect style="stroke: none" class="background"/></g><g><rect style="stroke: none" class="background"/></g><g><rect style="stroke: none" class="background"/></g><g><rect style="stroke: none" class="background"/></g><g><rect style="stroke: none" class="background"/></g><g><rect style="stroke: none" class="background"/></g><g><rect style="stroke: none" class="background"/></g><g><rect style="stroke: none" class="background"/></g><g><rect style="stroke: none" class="background"/></g><g class="edgeLabel"><g transform="translate(0, 0)" class="label"><text y="-10.1"><tspan dy="1.1em" y="-0.1em" x="0" class="text-outer-tspan"/></text></g></g><g class="edgeLabel"><g transform="translate(0, 0)" class="label"><text y="-10.1"><tspan dy="1.1em" y="-0.1em" x="0" class="text-outer-tspan"/></text></g></g><g class="edgeLabel"><g transform="translate(0, 0)" class="label"><text y="-10.1"><tspan dy="1.1em" y="-0.1em" x="0" class="text-outer-tspan"/></text></g></g><g class="edgeLabel"><g transform="translate(0, 0)" class="label"><text y="-10.1"><tspan dy="1.1em" y="-0.1em" x="0" class="text-outer-tspan"/></text></g></g><g class="edgeLabel"><g transform="translate(0, 0)" class="label"><text y="-10.1"><tspan dy="1.1em" y="-0.1em" x="0" class="text-outer-tspan"/></text></g></g><g class="edgeLabel"><g transform="translate(0, 0)" class="label"><text y="-10.1"><tspan dy="1.1em" y="-0.1em" x="0" class="text-outer-tspan"/></text></g></g><g class="edgeLabel"><g transform="translate(0, 0)" class="label"><text y="-10.1"><tspan dy="1.1em" y="-0.1em" x="0" class="text-outer-tspan"/></text></g></g><g class="edgeLabel"><g transform="translate(0, 0)" class="label"><text y="-10.1"><tspan dy="1.1em" y="-0.1em" x="0" class="text-outer-tspan"/></text></g></g><g class="edgeLabel"><g transform="translate(0, 0)" class="label"><text y="-10.1"><tspan dy="1.1em" y="-0.1em" x="0" class="text-outer-tspan"/></text></g></g><g class="edgeLabel"><g transform="translate(0, 0)" class="label"><text y="-10.1"><tspan dy="1.1em" y="-0.1em" x="0" class="text-outer-tspan"/></text></g></g><g class="edgeLabel"><g transform="translate(0, 0)" class="label"><text y="-10.1"><tspan dy="1.1em" y="-0.1em" x="0" class="text-outer-tspan"/></text></g></g><g class="edgeLabel"><g transform="translate(0, 0)" class="label"><text y="-10.1"><tspan dy="1.1em" y="-0.1em" x="0" class="text-outer-tspan"/></text></g></g><g class="edgeLabel"><g transform="translate(0, 0)" class="label"><text y="-10.1"><tspan dy="1.1em" y="-0.1em" x="0" class="text-outer-tspan"/></text></g></g><g class="edgeLabel"><g transform="translate(0, 0)" class="label"><text y="-10.1"><tspan dy="1.1em" y="-0.1em" x="0" class="text-outer-tspan"/></text></g></g><g class="edgeLabel"><g transform="translate(0, 0)" class="label"><text y="-10.1"><tspan dy="1.1em" y="-0.1em" x="0" class="text-outer-tspan"/></text></g></g><g class="edgeLabel"><g transform="translate(0, 0)" class="label"><text y="-10.1"><tspan dy="1.1em" y="-0.1em" x="0" class="text-outer-tspan"/></text></g></g><g class="edgeLabel"><g transform="translate(0, 0)" class="label"><text y="-10.1"><tspan dy="1.1em" y="-0.1em" x="0" class="text-outer-tspan"/></text></g></g><g class="edgeLabel"><g transform="translate(0, 0)" class="label"><text y="-10.1"><tspan dy="1.1em" y="-0.1em" x="0" class="text-outer-tspan"/></text></g></g><g class="edgeLabel"><g transform="translate(0, 0)" class="label"><text y="-10.1"><tspan dy="1.1em" y="-0.1em" x="0" class="text-outer-tspan"/></text></g></g><g class="edgeLabel"><g transform="translate(0, 0)" class="label"><text y="-10.1"><tspan dy="1.1em" y="-0.1em" x="0" class="text-outer-tspan"/></text></g></g><g class="edgeLabel"><g transform="translate(0, 0)" class="label"><text y="-10.1"><tspan dy="1.1em" y="-0.1em" x="0" class="text-outer-tspan"/></text></g></g><g class="edgeLabel"><g transform="translate(0, 0)" class="label"><text y="-10.1"><tspan dy="1.1em" y="-0.1em" x="0" class="text-outer-tspan"/></text></g></g><g class="edgeLabel"><g transform="translate(0, 0)" class="label"><text y="-10.1"><tspan dy="1.1em" y="-0.1em" x="0" class="text-outer-tspan"/></text></g></g></g><g class="nodes"><g transform="translate(519.09375, 43.75)" id="flowchart-RP-0" class="node default orch"><rect height="71.5" width="212.921875" y="-35.75" x="-106.4609375" style="fill:#FFF1ED !important;stroke:#FF7A5C !important;stroke-width:2px !important" class="basic label-container"/><g transform="translate(0, -17.75)" style="color:#7A2E1E !important" class="label"><rect/><g><rect style="stroke: none" class="background"/><text style="fill:#7A2E1E !important" y="-10.1"><tspan dy="1.1em" y="-0.1em" x="0" class="text-outer-tspan"><tspan font-weight="normal" class="text-inner-tspan" font-style="normal">scripts/run_pipeline.py</tspan></tspan><tspan dy="1.1em" y="1em" x="0" class="text-outer-tspan"><tspan font-weight="normal" class="text-inner-tspan" font-style="normal">오케스트레이터</tspan></tspan></text></g></g></g><g transform="translate(1401.8671875, 211.25)" id="flowchart-CFG-1" class="node default common"><rect height="71.5" width="153.8125" y="-35.75" x="-76.90625" style="fill:#FFF9E6 !important;stroke:#E0B23A !important;stroke-width:1.5px !important" class="basic label-container"/><g transform="translate(0, -17.75)" style="color:#5C4710 !important" class="label"><rect/><g><rect style="stroke: none" class="background"/><text style="fill:#5C4710 !important" y="-10.1"><tspan dy="1.1em" y="-0.1em" x="0" class="text-outer-tspan"><tspan font-weight="normal" class="text-inner-tspan" font-style="normal">config.py</tspan></tspan><tspan dy="1.1em" y="1em" x="0" class="text-outer-tspan"><tspan font-weight="normal" class="text-inner-tspan" font-style="normal">통제어휘</tspan><tspan font-weight="normal" class="text-inner-tspan" font-style="normal"> 로더</tspan></tspan></text></g></g></g><g transform="translate(1064.5546875, 211.25)" id="flowchart-OKF-2" class="node default common"><rect height="71.5" width="252.421875" y="-35.75" x="-126.2109375" style="fill:#FFF9E6 !important;stroke:#E0B23A !important;stroke-width:1.5px !important" class="basic label-container"/><g transform="translate(0, -17.75)" style="color:#5C4710 !important" class="label"><rect/><g><rect style="stroke: none" class="background"/><text style="fill:#5C4710 !important" y="-10.1"><tspan dy="1.1em" y="-0.1em" x="0" class="text-outer-tspan"><tspan font-weight="normal" class="text-inner-tspan" font-style="normal">okf.py</tspan></tspan><tspan dy="1.1em" y="1em" x="0" class="text-outer-tspan"><tspan font-weight="normal" class="text-inner-tspan" font-style="normal">content_hash</tspan><tspan font-weight="normal" class="text-inner-tspan" font-style="normal"> ·</tspan><tspan font-weight="normal" class="text-inner-tspan" font-style="normal"> to_markdown</tspan></tspan></text></g></g></g><g transform="translate(1980.83984375, 211.25)" id="flowchart-BASE-3" class="node default ingest"><rect height="55" width="119.78125" y="-27.5" x="-59.890625" style="fill:#EAF6FF !important;stroke:#3FA0D3 !important;stroke-width:1.5px !important" class="basic label-container"/><g transform="translate(0, -9.5)" style="color:#0B3550 !important" class="label"><rect/><g><rect style="stroke: none" class="background"/><text style="fill:#0B3550 !important" y="-10.1"><tspan dy="1.1em" y="-0.1em" x="0" class="text-outer-tspan"><tspan font-weight="normal" class="text-inner-tspan" font-style="normal">base.py</tspan></tspan></text></g></g></g><g transform="translate(2170.4453125, 378.75)" id="flowchart-KO-4" class="node default ingest"><rect height="55" width="123.78125" y="-27.5" x="-61.890625" style="fill:#EAF6FF !important;stroke:#3FA0D3 !important;stroke-width:1.5px !important" class="basic label-container"/><g transform="translate(0, -9.5)" style="color:#0B3550 !important" class="label"><rect/><g><rect style="stroke: none" class="background"/><text style="fill:#0B3550 !important" y="-10.1"><tspan dy="1.1em" y="-0.1em" x="0" class="text-outer-tspan"><tspan font-weight="normal" class="text-inner-tspan" font-style="normal">kopis.py</tspan></tspan></text></g></g></g><g transform="translate(1992.703125, 378.75)" id="flowchart-TO-5" class="node default ingest"><rect height="55" width="135.703125" y="-27.5" x="-67.8515625" style="fill:#EAF6FF !important;stroke:#3FA0D3 !important;stroke-width:1.5px !important" class="basic label-container"/><g transform="translate(0, -9.5)" style="color:#0B3550 !important" class="label"><rect/><g><rect style="stroke: none" class="background"/><text style="fill:#0B3550 !important" y="-10.1"><tspan dy="1.1em" y="-0.1em" x="0" class="text-outer-tspan"><tspan font-weight="normal" class="text-inner-tspan" font-style="normal">tourapi.py</tspan></tspan></text></g></g></g><g transform="translate(1789.5625, 378.75)" id="flowchart-WSA-6" class="node default ingest"><rect height="71.5" width="174.578125" y="-35.75" x="-87.2890625" style="fill:#EAF6FF !important;stroke:#3FA0D3 !important;stroke-width:1.5px !important" class="basic label-container"/><g transform="translate(0, -17.75)" style="color:#0B3550 !important" class="label"><rect/><g><rect style="stroke: none" class="background"/><text style="fill:#0B3550 !important" y="-10.1"><tspan dy="1.1em" y="-0.1em" x="0" class="text-outer-tspan"><tspan font-weight="normal" class="text-inner-tspan" font-style="normal">websearch.py</tspan></tspan><tspan dy="1.1em" y="1em" x="0" class="text-outer-tspan"><tspan font-weight="normal" class="text-inner-tspan" font-style="normal">Exa·Brave·Tavily</tspan></tspan></text></g></g></g><g transform="translate(1858.40234375, 570)" id="flowchart-T2O-7" class="node default norm"><rect height="55" width="129.125" y="-27.5" x="-64.5625" style="fill:#E9FBF5 !important;stroke:#3FD3B0 !important;stroke-width:1.5px !important" class="basic label-container"/><g transform="translate(0, -9.5)" style="color:#0B3B33 !important" class="label"><rect/><g><rect style="stroke: none" class="background"/><text style="fill:#0B3B33 !important" y="-10.1"><tspan dy="1.1em" y="-0.1em" x="0" class="text-outer-tspan"><tspan font-weight="normal" class="text-inner-tspan" font-style="normal">to_okf.py</tspan></tspan></text></g></g></g><g transform="translate(1710.8125, 729.25)" id="flowchart-UPS-8" class="node default norm"><rect height="55" width="131.234375" y="-27.5" x="-65.6171875" style="fill:#E9FBF5 !important;stroke:#3FD3B0 !important;stroke-width:1.5px !important" class="basic label-container"/><g transform="translate(0, -9.5)" style="color:#0B3B33 !important" class="label"><rect/><g><rect style="stroke: none" class="background"/><text style="fill:#0B3B33 !important" y="-10.1"><tspan dy="1.1em" y="-0.1em" x="0" class="text-outer-tspan"><tspan font-weight="normal" class="text-inner-tspan" font-style="normal">upsert.py</tspan></tspan></text></g></g></g><g transform="translate(647.109375, 729.25)" id="flowchart-VAL-9" class="node default build"><rect height="55" width="139.859375" y="-27.5" x="-69.9296875" style="fill:#F3ECFF !important;stroke:#9B6BE0 !important;stroke-width:1.5px !important" class="basic label-container"/><g transform="translate(0, -9.5)" style="color:#3A2660 !important" class="label"><rect/><g><rect style="stroke: none" class="background"/><text style="fill:#3A2660 !important" y="-10.1"><tspan dy="1.1em" y="-0.1em" x="0" class="text-outer-tspan"><tspan font-weight="normal" class="text-inner-tspan" font-style="normal">validate.py</tspan></tspan></text></g></g></g><g transform="translate(845.578125, 729.25)" id="flowchart-BI-10" class="node default build"><rect height="55" width="161.078125" y="-27.5" x="-80.5390625" style="fill:#F3ECFF !important;stroke:#9B6BE0 !important;stroke-width:1.5px !important" class="basic label-container"/><g transform="translate(0, -9.5)" style="color:#3A2660 !important" class="label"><rect/><g><rect style="stroke: none" class="background"/><text style="fill:#3A2660 !important" y="-10.1"><tspan dy="1.1em" y="-0.1em" x="0" class="text-outer-tspan"><tspan font-weight="normal" class="text-inner-tspan" font-style="normal">build_index.py</tspan></tspan></text></g></g></g><g transform="translate(1054.5546875, 729.25)" id="flowchart-SQ-11" class="node default build"><rect height="71.5" width="160.875" y="-35.75" x="-80.4375" style="fill:#F3ECFF !important;stroke:#9B6BE0 !important;stroke-width:1.5px !important" class="basic label-container"/><g transform="translate(0, -17.75)" style="color:#3A2660 !important" class="label"><rect/><g><rect style="stroke: none" class="background"/><text style="fill:#3A2660 !important" y="-10.1"><tspan dy="1.1em" y="-0.1em" x="0" class="text-outer-tspan"><tspan font-weight="normal" class="text-inner-tspan" font-style="normal">build_sqlite.py</tspan></tspan><tspan dy="1.1em" y="1em" x="0" class="text-outer-tspan"><tspan font-weight="normal" class="text-inner-tspan" font-style="normal">FTS5</tspan></tspan></text></g></g></g><g transform="translate(1260.4296875, 729.25)" id="flowchart-WI-12" class="node default build"><rect height="55" width="154.875" y="-27.5" x="-77.4375" style="fill:#F3ECFF !important;stroke:#9B6BE0 !important;stroke-width:1.5px !important" class="basic label-container"/><g transform="translate(0, -9.5)" style="color:#3A2660 !important" class="label"><rect/><g><rect style="stroke: none" class="background"/><text style="fill:#3A2660 !important" y="-10.1"><tspan dy="1.1em" y="-0.1em" x="0" class="text-outer-tspan"><tspan font-weight="normal" class="text-inner-tspan" font-style="normal">wiki_index.py</tspan></tspan></text></g></g></g><g transform="translate(120.9453125, 211.25)" id="flowchart-REC-13" class="node default rec"><rect height="71.5" width="123.90625" y="-35.75" x="-61.953125" style="fill:#FCE9F3 !important;stroke:#D85B9E !important;stroke-width:1.5px !important" class="basic label-container"/><g transform="translate(0, -17.75)" style="color:#5C1840 !important" class="label"><rect/><g><rect style="stroke: none" class="background"/><text style="fill:#5C1840 !important" y="-10.1"><tspan dy="1.1em" y="-0.1em" x="0" class="text-outer-tspan"><tspan font-weight="normal" class="text-inner-tspan" font-style="normal">rank.py</tspan></tspan><tspan dy="1.1em" y="1em" x="0" class="text-outer-tspan"><tspan font-weight="normal" class="text-inner-tspan" font-style="normal">규칙기반</tspan></tspan></text></g></g></g><g transform="translate(120.9453125, 378.75)" id="flowchart-AIP-14" class="node default rec"><rect height="71.5" width="157.890625" y="-35.75" x="-78.9453125" style="fill:#FCE9F3 !important;stroke:#D85B9E !important;stroke-width:1.5px !important" class="basic label-container"/><g transform="translate(0, -17.75)" style="color:#5C1840 !important" class="label"><rect/><g><rect style="stroke: none" class="background"/><text style="fill:#5C1840 !important" y="-10.1"><tspan dy="1.1em" y="-0.1em" x="0" class="text-outer-tspan"><tspan font-weight="normal" class="text-inner-tspan" font-style="normal">ai_planner.py</tspan></tspan><tspan dy="1.1em" y="1em" x="0" class="text-outer-tspan"><tspan font-weight="normal" class="text-inner-tspan" font-style="normal">Gemini</tspan><tspan font-weight="normal" class="text-inner-tspan" font-style="normal"> +</tspan><tspan font-weight="normal" class="text-inner-tspan" font-style="normal"> 폴백</tspan></tspan></text></g></g></g><g transform="translate(383.671875, 211.25)" id="flowchart-NOT-15" class="node default orch"><rect height="55" width="231.5625" y="-27.5" x="-115.78125" style="fill:#FFF1ED !important;stroke:#FF7A5C !important;stroke-width:2px !important" class="basic label-container"/><g transform="translate(0, -9.5)" style="color:#7A2E1E !important" class="label"><rect/><g><rect style="stroke: none" class="background"/><text style="fill:#7A2E1E !important" y="-10.1"><tspan dy="1.1em" y="-0.1em" x="0" class="text-outer-tspan"><tspan font-weight="normal" class="text-inner-tspan" font-style="normal">scripts/notify/dispatch.py</tspan></tspan></text></g></g></g><g transform="translate(654.515625, 211.25)" id="flowchart-MAC-16" class="node default orch"><rect height="55" width="214.125" y="-27.5" x="-107.0625" style="fill:#FFF1ED !important;stroke:#FF7A5C !important;stroke-width:2px !important" class="basic label-container"/><g transform="translate(0, -9.5)" style="color:#7A2E1E !important" class="label"><rect/><g><rect style="stroke: none" class="background"/><text style="fill:#7A2E1E !important" y="-10.1"><tspan dy="1.1em" y="-0.1em" x="0" class="text-outer-tspan"><tspan font-weight="normal" class="text-inner-tspan" font-style="normal">scripts/macro/apply.py</tspan></tspan></text></g></g></g><g transform="translate(647.109375, 896.75)" id="flowchart-WEB-47" class="node default sink"><rect height="71.5" width="225.5" y="-35.75" x="-112.75" style="fill:#E6F6EC !important;stroke:#2ea44f !important;stroke-width:1.5px !important" class="basic label-container"/><g transform="translate(0, -17.75)" style="color:#14532d !important" class="label"><rect/><g><rect style="stroke: none" class="background"/><text style="fill:#14532d !important" y="-10.1"><tspan dy="1.1em" y="-0.1em" x="0" class="text-outer-tspan"><tspan font-weight="normal" class="text-inner-tspan" font-style="normal">web/public/data/*.json</tspan><tspan font-weight="normal" class="text-inner-tspan" font-style="normal"> +</tspan></tspan><tspan dy="1.1em" y="1em" x="0" class="text-outer-tspan"><tspan font-weight="normal" class="text-inner-tspan" font-style="normal">events.db</tspan><tspan font-weight="normal" class="text-inner-tspan" font-style="normal"> →</tspan><tspan font-weight="normal" class="text-inner-tspan" font-style="normal"> index.html</tspan></tspan></text></g></g></g></g></g></g><text class="flowchartTitleText" y="-25" x="1137.16796875" text-anchor="middle">놓치마 · 구조 (모듈 그래프)</text></svg>